<svg width="25" height="24" viewBox="0 0 25 24" fill="none" xmlns="http://www.w3.org/2000/svg">
<path d="M10.5863 14L21.5863 3M10.5863 14L14.0863 21C14.1301 21.0957 14.2006 21.1769 14.2892 21.2338C14.3778 21.2906 14.4809 21.3209 14.5863 21.3209C14.6916 21.3209 14.7947 21.2906 14.8833 21.2338C14.9719 21.1769 15.0424 21.0957 15.0863 21L21.5863 3M10.5863 14L3.58625 10.5C3.49051 10.4561 3.40938 10.3857 3.3525 10.2971C3.29562 10.2084 3.26538 10.1053 3.26538 10C3.26538 9.89468 3.29562 9.79158 3.3525 9.70295C3.40938 9.61431 3.49051 9.54387 3.58625 9.5L21.5863 3" stroke="#F47C27" stroke-width="2" stroke-linecap="round" stroke-linejoin="round"/>
</svg>
